<?xml version="1.0" encoding="UTF-8" standalone="no"?>
<svg
   xmlns:dc="http://purl.org/dc/elements/1.1/"
   xmlns:cc="http://creativecommons.org/ns#"
   xmlns:rdf="http://www.w3.org/1999/02/22-rdf-syntax-ns#"
   xmlns:svg="http://www.w3.org/2000/svg"
   xmlns="http://www.w3.org/2000/svg"
   xmlns:sodipodi="http://sodipodi.sourceforge.net/DTD/sodipodi-0.dtd"
   xmlns:inkscape="http://www.inkscape.org/namespaces/inkscape"
   width="20.953"
   height="20.953"
   viewBox="0 0 20.953 20.953"
   version="1.1"
   id="svg3"
   sodipodi:docname="exit-black.svg"
   inkscape:version="1.0.2-2 (e86c870879, 2021-01-15)">
  <metadata
     id="metadata9">
    <rdf:RDF>
      <cc:Work
         rdf:about="">
        <dc:format>image/svg+xml</dc:format>
        <dc:type
           rdf:resource="http://purl.org/dc/dcmitype/StillImage" />
      </cc:Work>
    </rdf:RDF>
  </metadata>
  <defs
     id="defs7" />
  <sodipodi:namedview
     pagecolor="#ffffff"
     bordercolor="#666666"
     borderopacity="1"
     objecttolerance="10"
     gridtolerance="10"
     guidetolerance="10"
     inkscape:pageopacity="0"
     inkscape:pageshadow="2"
     inkscape:window-width="2560"
     inkscape:window-height="1387"
     id="namedview5"
     showgrid="false"
     inkscape:zoom="48.107672"
     inkscape:cx="10.4765"
     inkscape:cy="9.6450313"
     inkscape:window-x="1912"
     inkscape:window-y="-8"
     inkscape:window-maximized="1"
     inkscape:current-layer="svg3" />
  <path
     id="Icon_ionic-md-close"
     data-name="Icon ionic-md-close"
     d="M28.477,9.619l-2.1-2.1L18,15.9,9.619,7.523l-2.1,2.1L15.9,18,7.523,26.381l2.1,2.1L18,20.1l8.381,8.381,2.1-2.1L20.1,18Z"
     transform="translate(-7.523 -7.523)"
     fill="#fff"
     style="fill:#000000" />
  <path
     style="fill:#000000;stroke-width:0.0207867"
     d="M 1.0548485,19.897998 0.02078894,18.863783 1.1030332,17.78295 C 1.6982675,17.188492 3.5801681,15.300768 5.2850346,13.588006 L 8.3847918,10.473894 4.1976151,6.286679 0.01043855,2.0994637 1.0518905,1.0580118 2.0933424,0.01655985 6.2693311,4.1842358 c 2.2967935,2.2922217 4.1833889,4.1752746 4.1924349,4.1845621 0.009,0.00929 1.900894,-1.8675439 4.204108,-4.1707365 l 4.187661,-4.18762285 1.044513,1.04451265 1.044512,1.0445125 -4.188479,4.188518 -4.188479,4.1885183 4.188479,4.188517 4.188479,4.188518 -1.044512,1.044513 -1.044513,1.044512 -4.188518,-4.188479 -4.188517,-4.188479 -4.1833443,4.183305 c -2.300839,2.300818 -4.1880472,4.183305 -4.1937957,4.183305 -0.00575,0 -0.4757788,-0.465396 -1.0445115,-1.034214 z"
     id="path11" />
  <path
     style="fill:#000000;stroke-width:0.0207867"
     d="M 1.0548485,19.897998 0.02078894,18.863783 1.1030332,17.78295 C 1.6982675,17.188492 3.5801681,15.300768 5.2850346,13.588006 L 8.3847918,10.473894 4.1976151,6.286679 0.01043855,2.0994637 1.0518905,1.0580118 2.0933424,0.01655985 6.2693311,4.1842358 c 2.2967935,2.2922217 4.1833889,4.1752746 4.1924349,4.1845621 0.009,0.00929 1.900894,-1.8675439 4.204108,-4.1707365 l 4.187661,-4.18762285 1.044513,1.04451265 1.044512,1.0445125 -4.188479,4.188518 -4.188479,4.1885183 4.188479,4.188517 4.188479,4.188518 -1.044512,1.044513 -1.044513,1.044512 -4.188518,-4.188479 -4.188517,-4.188479 -4.1833443,4.183305 c -2.300839,2.300818 -4.1880472,4.183305 -4.1937957,4.183305 -0.00575,0 -0.4757788,-0.465396 -1.0445115,-1.034214 z"
     id="path13" />
  <path
     style="fill:#000000;stroke-width:0.0207867"
     d="M 1.055223,19.898074 0.02153795,18.863935 4.2027603,14.66851 8.3839826,10.473085 4.1972106,6.2862745 0.01043855,2.0994637 1.0549512,1.0549512 2.0994637,0.01043855 6.287328,4.1982641 l 4.187864,4.1878254 4.18949,-4.187507 4.18949,-4.1875071 1.044194,1.0441942 1.044194,1.0441941 -4.188479,4.188518 -4.188479,4.1885183 4.188479,4.188517 4.188479,4.188518 -1.044512,1.044513 -1.044513,1.044512 -4.188518,-4.188479 -4.188517,-4.188479 -4.1833443,4.183305 c -2.300839,2.300818 -4.1880472,4.183305 -4.1937957,4.183305 -0.00575,0 -0.4756103,-0.465362 -1.044137,-1.034138 z"
     id="path15" />
</svg>
