<?xml version="1.0" encoding="UTF-8" standalone="no"?>
<svg
   xmlns:dc="http://purl.org/dc/elements/1.1/"
   xmlns:cc="http://creativecommons.org/ns#"
   xmlns:rdf="http://www.w3.org/1999/02/22-rdf-syntax-ns#"
   xmlns:svg="http://www.w3.org/2000/svg"
   xmlns="http://www.w3.org/2000/svg"
   xmlns:xlink="http://www.w3.org/1999/xlink"
   xmlns:sodipodi="http://sodipodi.sourceforge.net/DTD/sodipodi-0.dtd"
   xmlns:inkscape="http://www.inkscape.org/namespaces/inkscape"
   xml:space="preserve"
   width="45.609798mm"
   height="54.954029mm"
   version="1.1"
   style="clip-rule:evenodd;fill-rule:evenodd;image-rendering:optimizeQuality;shape-rendering:geometricPrecision;text-rendering:geometricPrecision"
   viewBox="0 0 4560.9798 5495.4029"
   id="svg147"
   sodipodi:docname="yeni logo yazısız.svg"
   inkscape:version="1.0.2-2 (e86c870879, 2021-01-15)"><metadata
   id="metadata151"><rdf:RDF><cc:Work
       rdf:about=""><dc:format>image/svg+xml</dc:format><dc:type
         rdf:resource="http://purl.org/dc/dcmitype/StillImage" /></cc:Work></rdf:RDF></metadata><sodipodi:namedview
   pagecolor="#ffffff"
   bordercolor="#666666"
   borderopacity="1"
   objecttolerance="10"
   gridtolerance="10"
   guidetolerance="10"
   inkscape:pageopacity="0"
   inkscape:pageshadow="2"
   inkscape:window-width="2560"
   inkscape:window-height="1387"
   id="namedview149"
   showgrid="false"
   inkscape:zoom="0.8979798"
   inkscape:cx="197.33556"
   inkscape:cy="192.45144"
   inkscape:window-x="1912"
   inkscape:window-y="-8"
   inkscape:window-maximized="1"
   inkscape:current-layer="svg147" />
 <defs
   id="defs55">
  <style
   type="text/css"
   id="style2">
   <![CDATA[
    .fil0 {fill:none}
    .fil32 {fill:#0B6201}
    .fil33 {fill:#50C03C}
    .fil27 {fill:url(#id0)}
    .fil28 {fill:url(#id1)}
    .fil16 {fill:url(#id2)}
    .fil31 {fill:url(#id3)}
    .fil29 {fill:url(#id4)}
    .fil18 {fill:url(#id5)}
    .fil20 {fill:url(#id6)}
    .fil7 {fill:url(#id7)}
    .fil6 {fill:url(#id8)}
    .fil14 {fill:url(#id9)}
    .fil15 {fill:url(#id10)}
    .fil21 {fill:url(#id11)}
    .fil17 {fill:url(#id12)}
    .fil22 {fill:url(#id13)}
    .fil19 {fill:url(#id14)}
    .fil10 {fill:url(#id15)}
    .fil12 {fill:url(#id16)}
    .fil4 {fill:url(#id17)}
    .fil9 {fill:url(#id18)}
    .fil13 {fill:url(#id19)}
    .fil11 {fill:url(#id20)}
    .fil5 {fill:url(#id21)}
    .fil24 {fill:url(#id22)}
    .fil30 {fill:url(#id23)}
    .fil23 {fill:url(#id24)}
    .fil3 {fill:url(#id25)}
    .fil1 {fill:url(#id26)}
    .fil8 {fill:url(#id27)}
    .fil26 {fill:url(#id28)}
    .fil2 {fill:url(#id29)}
    .fil25 {fill:url(#id30)}
   ]]>
  </style>
  <linearGradient
   id="id0"
   gradientUnits="userSpaceOnUse"
   x1="7984.8599"
   y1="8446.6104"
   x2="8072.3799"
   y2="8446.6104">
   <stop
   offset="0"
   style="stop-opacity:1; stop-color:#F9E918"
   id="stop4" />
   <stop
   offset="1"
   style="stop-opacity:1; stop-color:#0B6201"
   id="stop6" />
  </linearGradient>
  <linearGradient
   id="id1"
   gradientUnits="userSpaceOnUse"
   xlink:href="#id0"
   x1="8072.3599"
   y1="8443.9805"
   x2="8159.8799"
   y2="8443.9805">
  </linearGradient>
  <linearGradient
   id="id2"
   gradientUnits="userSpaceOnUse"
   x1="9277.5098"
   y1="8950.0996"
   x2="8707.4199"
   y2="9028.96">
   <stop
   offset="0"
   style="stop-opacity:1; stop-color:#8CC03C"
   id="stop10" />
   <stop
   offset="0.478431"
   style="stop-opacity:1; stop-color:#4C940F"
   id="stop12" />
   <stop
   offset="1"
   style="stop-opacity:1; stop-color:#0B6201"
   id="stop14" />
  </linearGradient>
  <linearGradient
   id="id3"
   gradientUnits="userSpaceOnUse"
   xlink:href="#id0"
   x1="8060.52"
   y1="8518.7998"
   x2="8073.8198"
   y2="8432.2803">
  </linearGradient>
  <linearGradient
   id="id4"
   gradientUnits="userSpaceOnUse"
   xlink:href="#id0"
   x1="8128.4702"
   y1="8385.6602"
   x2="8063.73"
   y2="8444.5801">
  </linearGradient>
  <linearGradient
   id="id5"
   gradientUnits="userSpaceOnUse"
   xlink:href="#id2"
   x1="9064.6797"
   y1="8982.3701"
   x2="8521.9102"
   y2="9149.0703">
  </linearGradient>
  <linearGradient
   id="id6"
   gradientUnits="userSpaceOnUse"
   xlink:href="#id2"
   x1="9347.1602"
   y1="8088.1201"
   x2="9003.5801"
   y2="8643.3604">
  </linearGradient>
  <linearGradient
   id="id7"
   gradientUnits="userSpaceOnUse"
   xlink:href="#id2"
   x1="6446.5898"
   y1="7750.8198"
   x2="7324.5"
   y2="8741.79">
  </linearGradient>
  <linearGradient
   id="id8"
   gradientUnits="userSpaceOnUse"
   xlink:href="#id2"
   x1="6840.1899"
   y1="9107.3203"
   x2="8029.1602"
   y2="9209.9697">
  </linearGradient>
  <linearGradient
   id="id9"
   gradientUnits="userSpaceOnUse"
   xlink:href="#id2"
   x1="9218.54"
   y1="9407.1797"
   x2="8589.1602"
   y2="9348.46">
  </linearGradient>
  <linearGradient
   id="id10"
   gradientUnits="userSpaceOnUse"
   xlink:href="#id2"
   x1="8918.3096"
   y1="9283.6602"
   x2="8747.9902"
   y2="9196.4902">
  </linearGradient>
  <linearGradient
   id="id11"
   gradientUnits="userSpaceOnUse"
   xlink:href="#id2"
   x1="8950.7305"
   y1="8251.5303"
   x2="8747.1201"
   y2="9246.9902">
  </linearGradient>
  <linearGradient
   id="id12"
   gradientUnits="userSpaceOnUse"
   xlink:href="#id2"
   x1="9668.7598"
   y1="8799.7598"
   x2="8912.5801"
   y2="8922.8799">
  </linearGradient>
  <linearGradient
   id="id13"
   gradientUnits="userSpaceOnUse"
   xlink:href="#id2"
   x1="8723.9102"
   y1="7479.96"
   x2="8827.8701"
   y2="8272.0498">
  </linearGradient>
  <linearGradient
   id="id14"
   gradientUnits="userSpaceOnUse"
   xlink:href="#id2"
   x1="9112.0303"
   y1="8312.0303"
   x2="8802.8301"
   y2="8860.7998">
  </linearGradient>
  <linearGradient
   id="id15"
   gradientUnits="userSpaceOnUse"
   xlink:href="#id2"
   x1="6876.3398"
   y1="5869.5098"
   x2="7012.8198"
   y2="7543.0601">
  </linearGradient>
  <linearGradient
   id="id16"
   gradientUnits="userSpaceOnUse"
   xlink:href="#id2"
   x1="7789.2798"
   y1="5867.6499"
   x2="8100.8701"
   y2="7443.04">
  </linearGradient>
  <linearGradient
   id="id17"
   gradientUnits="userSpaceOnUse"
   xlink:href="#id2"
   x1="6388.5801"
   y1="9135.0898"
   x2="7594.8901"
   y2="9045.1396">
  </linearGradient>
  <linearGradient
   id="id18"
   gradientUnits="userSpaceOnUse"
   xlink:href="#id2"
   x1="6751.29"
   y1="7555.2002"
   x2="7609.6699"
   y2="9510.7197">
  </linearGradient>
  <linearGradient
   id="id19"
   gradientUnits="userSpaceOnUse"
   xlink:href="#id2"
   x1="9542.29"
   y1="9402.8203"
   x2="8563.8799"
   y2="9584.5801">
  </linearGradient>
  <linearGradient
   id="id20"
   gradientUnits="userSpaceOnUse"
   xlink:href="#id2"
   x1="7076.4199"
   y1="6646.2998"
   x2="7303.6299"
   y2="8046.6001">
  </linearGradient>
  <linearGradient
   id="id21"
   gradientUnits="userSpaceOnUse"
   xlink:href="#id2"
   x1="5518.1699"
   y1="8999.0898"
   x2="7126.4302"
   y2="8917.8604">
  </linearGradient>
  <linearGradient
   id="id22"
   gradientUnits="userSpaceOnUse"
   xlink:href="#id2"
   x1="8299.0801"
   y1="7570.4399"
   x2="8311.7695"
   y2="8334.3896">
  </linearGradient>
  <linearGradient
   id="id23"
   gradientUnits="userSpaceOnUse"
   xlink:href="#id0"
   x1="8013.3599"
   y1="8384.6201"
   x2="8078.1001"
   y2="8443.54">
  </linearGradient>
  <linearGradient
   id="id24"
   gradientUnits="userSpaceOnUse"
   xlink:href="#id2"
   x1="8708.5596"
   y1="7861.2998"
   x2="8742.9805"
   y2="8535.3604">
  </linearGradient>
  <linearGradient
   id="id25"
   gradientUnits="userSpaceOnUse"
   xlink:href="#id2"
   x1="7274.1299"
   y1="9661.7197"
   x2="7585.5698"
   y2="9407.3301">
  </linearGradient>
  <linearGradient
   id="id26"
   gradientUnits="userSpaceOnUse"
   xlink:href="#id2"
   x1="6044.6201"
   y1="10182.38"
   x2="8135.4302"
   y2="10123.41">
  </linearGradient>
  <linearGradient
   id="id27"
   gradientUnits="userSpaceOnUse"
   xlink:href="#id2"
   x1="5864.46"
   y1="7394.6401"
   x2="6815.8901"
   y2="8383.7197">
  </linearGradient>
  <linearGradient
   id="id28"
   gradientUnits="userSpaceOnUse"
   x1="8082.6699"
   y1="8448.0596"
   x2="8124.6699"
   y2="8452.9102">
   <stop
   offset="0"
   style="stop-opacity:1; stop-color:#EF7F1A"
   id="stop42" />
   <stop
   offset="1"
   style="stop-opacity:1; stop-color:#EE781C"
   id="stop44" />
  </linearGradient>
  <linearGradient
   id="id29"
   gradientUnits="userSpaceOnUse"
   xlink:href="#id2"
   x1="6711.79"
   y1="10048.25"
   x2="7979.1201"
   y2="9649.4004">
  </linearGradient>
  <radialGradient
   id="id30"
   gradientUnits="userSpaceOnUse"
   gradientTransform="matrix(1.41727,0.934403,-0.984716,1.34486,4972,-10536)"
   cx="8139.3999"
   cy="8497.7695"
   r="1449.5699"
   fx="8139.3999"
   fy="8497.7695">
   <stop
   offset="0"
   style="stop-opacity:1; stop-color:#FFFA69"
   id="stop48" />
   <stop
   offset="0.278431"
   style="stop-opacity:1; stop-color:#F7BE41"
   id="stop50" />
   <stop
   offset="1"
   style="stop-opacity:1; stop-color:#F08219"
   id="stop52" />
  </radialGradient>
 <linearGradient
   inkscape:collect="always"
   xlink:href="#id2"
   id="linearGradient153"
   gradientUnits="userSpaceOnUse"
   x1="9277.5098"
   y1="8950.0996"
   x2="8707.4199"
   y2="9028.96" /><linearGradient
   inkscape:collect="always"
   xlink:href="#id0"
   id="linearGradient155"
   gradientUnits="userSpaceOnUse"
   x1="7984.8599"
   y1="8446.6104"
   x2="8072.3799"
   y2="8446.6104" /></defs>
 <g
   id="Katman_x0020_1"
   transform="translate(-5278.83,-5043.77)">
  <metadata
   id="CorelCorpID_0Corel-Layer" />
  <g
   id="_2812983905488">
   <path
   class="fil0"
   d="m 9839.81,9286.12 c -954.35,1332.65 -2805.57,1653.97 -4154.11,713.85 0,0 0,0 -0.01,-0.01 1132.32,-740.5 891.95,-1206.71 2088.34,-372.66 674.27,470.07 1585.4,311.98 2065.78,-341.18 z"
   id="path58" />
   <path
   class="fil0"
   d="m 9233.32,9770.95 c -1492.81,676.93 -3256.68,29.6 -3954.49,-1458.85 0,0 0,0 0,-0.01 1350.87,-75.13 1375.81,-599.07 1994.88,721.44 348.9,744.22 1217.01,1062.88 1959.61,737.42 z"
   id="path60" />
   <path
   class="fil0"
   d="M 8465.67,9887.58 C 6834.39,9727.41 5630.5,8284.87 5770.41,6646.93 c 0,0 0,0 0,-0.01 1207.45,610.37 1491.01,169.1 1366.9,1622.23 -69.96,818.97 522.52,1528.99 1328.36,1618.43 z"
   id="path62" />
   <path
   class="fil0"
   d="M 7742.55,9604.76 C 6409.9,8650.41 6088.58,6799.18 7028.71,5450.64 c 0,0 0,0 0,-0.01 740.51,1132.32 1206.71,891.96 372.66,2088.34 -470.07,674.27 -311.98,1585.4 341.18,2065.79 z"
   id="path64" />
   <path
   class="fil0"
   d="m 7257.72,8998.26 c -676.93,-1492.81 -29.6,-3256.68 1458.85,-3954.48 0,0 0,0 0.01,-0.01 75.13,1350.87 599.07,1375.81 -721.44,1994.88 -744.22,348.91 -1062.88,1217.01 -737.42,1959.61 z"
   id="path66" />
   <path
   class="fil1"
   d="m 9175.63,9796.4 c -969.34,415.62 -2044.76,280.49 -2865.11,-274.89 -153.69,133.17 -348.34,297.64 -624.82,478.45 1348.54,940.13 3199.76,618.81 4154.11,-713.84 -174.99,237.94 -407.14,410.17 -664.18,510.28 z"
   id="path68"
   style="fill:url(#id26)" />
   <path
   class="fil2"
   d="m 6310.52,9521.51 c 820.35,555.38 1895.77,690.51 2865.11,274.89 -244.96,95.4 -512.52,125.29 -774.75,84.12 -605.17,-72.5 -1148.99,-322 -1583.65,-691.79 -162.21,26.45 -295.99,150.21 -506.71,332.78 z"
   id="path70"
   style="fill:url(#id29)" />
   <path
   class="fil3"
   d="m 6817.23,9188.73 c 434.66,369.79 978.48,619.29 1583.65,691.79 -10.31,-1.62 -20.63,-3.35 -30.93,-5.2 -235.34,-41.5 -458.84,-139 -650.15,-285.6 -467.66,-322.22 -706.01,-433.04 -902.57,-400.99 z"
   id="path72"
   style="fill:url(#id25)" />
   <path
   class="fil4"
   d="m 6817.23,9188.73 c 196.56,-32.05 434.91,78.77 902.57,400.99 -10,-7.67 -19.91,-15.47 -29.73,-23.4 -487.9,-365.38 -834.14,-853.38 -1025.68,-1391.01 -153.72,-58.19 -331.44,-17.9 -605.22,34.85 182.34,375.48 441.2,708.99 758.06,978.57 z"
   id="path74"
   style="fill:url(#id17)" />
   <path
   class="fil5"
   d="m 6817.23,9188.73 c -316.86,-269.58 -575.72,-603.09 -758.06,-978.57 -199.69,38.48 -450.49,83.58 -780.34,101.94 237.76,507.16 599.29,916.67 1031.69,1209.41 210.72,-182.57 344.5,-306.33 506.71,-332.78 z"
   id="path76"
   style="fill:url(#id21)" />
   <path
   class="fil6"
   d="m 6664.39,8175.31 c 191.54,537.63 537.78,1025.63 1025.68,1391.01 -8.33,-6.72 -16.59,-13.54 -24.78,-20.44 C 7482.47,9392.32 7337.86,9196.3 7245.55,8973.9 7001.64,8461 6850.65,8245.85 6664.39,8175.31 Z"
   id="path78"
   style="fill:url(#id8)" />
   <path
   class="fil7"
   d="m 6664.39,8175.31 c 186.26,70.54 337.25,285.69 581.16,798.59 -4.84,-11.67 -9.54,-23.4 -14.09,-35.21 C 6991.65,8378.32 6935.79,7782.6 7038.73,7221.25 6934.71,7094 6760.64,7040.02 6497.17,6948.82 c -29.83,416.35 27.59,834.6 167.22,1226.49 z"
   id="path80"
   style="fill:url(#id7)" />
   <path
   class="fil8"
   d="m 6664.39,8175.31 c -139.63,-391.89 -197.05,-810.14 -167.22,-1226.49 -192.18,-66.53 -431.92,-152.86 -726.77,-301.89 -47.67,558.09 60.67,1093.5 288.77,1563.23 273.78,-52.75 451.5,-93.04 605.22,-34.85 z"
   id="path82"
   style="fill:url(#id27)" />
   <path
   class="fil9"
   d="m 7038.73,7221.25 c -102.94,561.35 -47.08,1157.07 192.73,1717.44 -3.79,-9.84 -7.48,-19.73 -11.07,-29.68 -81.66,-224.49 -108.94,-466.69 -77.65,-705.59 45.22,-566.13 22.03,-827.96 -104.01,-982.17 z"
   id="path84"
   style="fill:url(#id18)" />
   <path
   class="fil10"
   d="m 7038.73,7221.25 c 75.02,-409.21 234.42,-800.14 468.43,-1145.78 -133.17,-153.7 -297.64,-348.34 -478.45,-624.83 -320.34,459.49 -494.22,977.34 -531.54,1498.18 263.47,91.2 437.54,145.18 541.56,272.43 z"
   id="path86"
   style="fill:url(#id15)" />
   <path
   class="fil11"
   d="m 7507.16,6075.47 c -234.01,345.64 -393.41,736.57 -468.43,1145.78 126.04,154.21 149.23,416.04 104.01,982.17 2.99,-22.88 6.53,-45.72 10.61,-68.53 41.5,-235.34 139,-458.83 285.6,-650.15 588.12,-853.58 472.02,-943.2 68.21,-1409.27 z"
   id="path88"
   style="fill:url(#id20)" />
   <path
   class="fil12"
   d="m 7507.16,6075.47 c 403.81,466.07 519.91,555.69 -68.21,1409.27 141.64,-184.82 329.1,-339.63 556.19,-446.09 1320.5,-619.07 796.57,-644.01 721.43,-1994.88 -507.16,237.76 -916.67,599.29 -1209.41,1031.7 z"
   id="path90"
   style="fill:url(#id16)" />
  </g>
  <g
   id="_2812983905392">
   <path
   class="fil0"
   d="m 7687.34,9365.66 c 577.23,524.37 1470.45,488.61 2003.64,-83.6 0,0 0,0 0.01,-0.01 -600.78,-231.14 -535.62,-472.04 -1008.65,35.61 -266.59,286.11 -706.21,303.74 -995,48 z"
   id="path93" />
   <path
   class="fil0"
   d="m 8017.95,9530.49 c 762.08,165.5 1517.75,-312.08 1693.4,-1074.23 0,0 0,0 0.01,0 -635.86,100.21 -699.88,-140.99 -855.71,535.16 -87.83,381.07 -459.73,616.15 -837.7,539.07 z"
   id="path95" />
   <path
   class="fil0"
   d="m 8386.68,9507.93 c 742.74,-237.72 1158.38,-1029.15 929.42,-1777.01 0,0 0,0 0,-0.01 -500.56,404.72 -676.61,227.84 -473.48,891.32 114.47,373.93 -90.07,763.47 -455.94,885.7 z"
   id="path97" />
   <path
   class="fil0"
   d="m 8694.73,9304.03 c 524.37,-577.24 488.61,-1470.46 -83.6,-2003.65 0,0 0,0 -0.01,0 -231.14,600.77 -472.04,535.61 35.61,1008.64 286.11,266.6 303.74,706.21 48,995.01 z"
   id="path99" />
   <path
   class="fil0"
   d="m 8859.56,8973.42 c 165.5,-762.09 -312.08,-1517.76 -1074.23,-1693.41 0,0 0,0 0,0 100.21,635.85 -140.99,699.87 535.16,855.7 381.07,87.83 616.15,459.73 539.07,837.71 z"
   id="path101" />
   <path
   class="fil13"
   d="m 8047.32,9536.55 c 492.47,96.34 979.16,-74.12 1305.16,-414.52 84.82,46.56 191.81,103.59 338.5,160.02 -533.19,572.22 -1426.41,607.98 -2003.64,83.61 105.2,93.16 230.41,150.05 359.98,170.89 z"
   id="path103"
   style="fill:url(#id19)" />
   <path
   class="fil14"
   d="m 9352.48,9122.03 c -326,340.4 -812.69,510.86 -1305.16,414.52 123.49,19.87 250.93,7 368.78,-38.39 274.24,-94.27 502.22,-264.73 667.4,-480.22 78.1,-3.93 152.7,40.25 268.98,104.09 z"
   id="path105"
   style="fill:url(#id9)" />
   <path
   class="fil15"
   d="m 9083.5,9017.94 c -165.18,215.49 -393.16,385.95 -667.4,480.22 4.64,-1.78 9.26,-3.62 13.87,-5.51 105.31,-42.85 199.51,-110.56 273.83,-197.89 185.29,-196.67 285.06,-272.07 379.7,-276.82 z"
   id="path107"
   style="fill:url(#id10)" />
   <path
   class="fil16"
   d="m 9083.5,9017.94 c -94.64,4.75 -194.41,80.15 -379.7,276.82 3.89,-4.57 7.72,-9.19 11.49,-13.86 190.38,-218.77 302.61,-480.4 337.91,-749.63 65.67,-42.45 152.37,-41.49 284.99,-44.35 -47.24,192.89 -134.28,373.92 -254.69,531.02 z"
   id="path109"
   style="fill:url(#linearGradient153)" />
   <path
   class="fil17"
   d="m 9083.5,9017.94 c 120.41,-157.1 207.45,-338.13 254.69,-531.02 96.74,-2.08 217.9,-6.19 373.17,-30.66 -59.85,259.69 -187.04,486.34 -358.88,665.77 -116.28,-63.84 -190.88,-108.02 -268.98,-104.09 z"
   id="path111"
   style="fill:url(#id12)" />
   <path
   class="fil18"
   d="m 9053.2,8531.27 c -35.3,269.23 -147.53,530.86 -337.91,749.63 3.2,-3.96 6.36,-7.96 9.48,-11.99 69.68,-89.72 117.33,-195.36 138.01,-308.04 62.13,-262.97 110.84,-378.16 190.42,-429.6 z"
   id="path113"
   style="fill:url(#id5)" />
   <path
   class="fil19"
   d="m 9053.2,8531.27 c -79.58,51.44 -128.29,166.63 -190.42,429.6 1.08,-5.91 2.09,-11.84 3.03,-17.79 55.48,-284.64 21.86,-567.32 -82.19,-818.13 35.65,-69.59 111.22,-112.11 224.64,-180.9 55.53,190.67 70.67,390.97 44.94,587.22 z"
   id="path115"
   style="fill:url(#id14)" />
   <path
   class="fil20"
   d="m 9053.2,8531.27 c 25.73,-196.25 10.59,-396.55 -44.94,-587.22 82.73,-50.17 185.61,-114.31 307.84,-213.13 78.01,254.81 81.19,514.69 22.09,756 -132.62,2.86 -219.32,1.9 -284.99,44.35 z"
   id="path117"
   style="fill:url(#id6)" />
   <path
   class="fil21"
   d="m 8783.62,8124.95 c 104.05,250.81 137.67,533.49 82.19,818.13 0.78,-4.96 1.51,-9.93 2.18,-14.91 15.52,-112.59 3.98,-227.98 -34.48,-335.97 -77.67,-258.8 -93.09,-382.91 -49.89,-467.25 z"
   id="path119"
   style="fill:url(#id11)" />
   <path
   class="fil22"
   d="m 8783.62,8124.95 c -75.84,-182.83 -189.09,-348.71 -332.52,-486.07 46.56,-84.81 103.59,-191.81 160.03,-338.5 194.97,181.68 327.66,405.14 397.13,643.67 -113.42,68.79 -188.99,111.31 -224.64,180.9 z"
   id="path121"
   style="fill:url(#id13)" />
   <path
   class="fil23"
   d="m 8451.1,7638.88 c 143.43,137.36 256.68,303.24 332.52,486.07 -43.2,84.34 -27.78,208.45 49.89,467.25 -3.68,-10.34 -7.61,-20.61 -11.79,-30.81 -42.85,-105.31 -110.56,-199.51 -197.89,-273.83 -358.96,-338.19 -313.93,-391.49 -172.73,-648.68 z"
   id="path123"
   style="fill:url(#id24)" />
   <path
   class="fil24"
   d="m 8451.1,7638.88 c -141.2,257.19 -186.23,310.49 172.73,648.68 -84.38,-71.8 -187.06,-125.05 -303.34,-151.85 -676.15,-155.83 -434.95,-219.85 -535.16,-855.7 259.69,59.85 486.34,187.03 665.77,358.87 z"
   id="path125"
   style="fill:url(#id22)" />
  </g>
  <circle
   class="fil25"
   cx="8139.3999"
   cy="8817.3701"
   r="614.62"
   id="circle128"
   style="fill:url(#id30)" />
  <path
   class="fil26"
   d="m 8068.57,8372.07 c 3.59,55.69 7.02,56.2 36.07,5.06 -20.23,53.87 -15.48,57.11 48.01,32.32 -57.85,32.24 -56.4,36.14 14.07,40.28 -70.47,3.38 -71.44,6.59 -9.56,33.52 -66.2,-19.79 -70.51,-16.28 -43.44,35.38 -36.22,-47.92 -40.55,-47.03 -45.15,8.75 -2.94,-55.74 -5.78,-56.08 -29.86,-3.5 14.2,-55.06 8.31,-59.23 -58.19,-40.41 61.46,-27.11 60.45,-30.34 -10.09,-33.74 70.38,-3.12 71.21,-6.11 8.14,-31.01 67.45,17.37 72.52,13.43 49.89,-39.28 32.28,49.18 36.12,48.44 40.11,-7.37 z"
   id="path130"
   style="fill:url(#id28)" />
  <path
   class="fil27"
   d="m 8038.32,8423.48 c 20.16,0 32.35,20.41 34,29.02 1.64,8.61 -27.33,21.84 -35.76,13.82 -8.42,-8.02 -24.4,-12.94 -46.27,1.2 -21.86,14.14 27.87,-44.04 48.03,-44.04 z"
   id="path132"
   style="fill:url(#linearGradient155)" />
  <path
   class="fil28"
   d="m 8106.42,8420.86 c -20.16,0 -32.36,20.41 -34,29.01 -1.64,8.61 27.33,21.85 35.75,13.82 8.43,-8.02 24.41,-12.94 46.27,1.2 21.87,14.14 -27.86,-44.03 -48.02,-44.03 z"
   id="path134"
   style="fill:url(#id1)" />
  <path
   class="fil29"
   d="m 8073.36,8404.55 c -14.91,13.57 -10.19,36.87 -5.62,44.34 4.58,7.47 34.92,-2.24 35.75,-13.84 0.82,-11.61 9.33,-26 35.02,-30.26 25.7,-4.26 -50.24,-13.81 -65.15,-0.24 z"
   id="path136"
   style="fill:url(#id4)" />
  <path
   class="fil30"
   d="m 8068.47,8403.51 c 14.91,13.57 10.19,36.87 5.61,44.34 -4.57,7.47 -34.91,-2.24 -35.74,-13.84 -0.83,-11.61 -9.34,-26 -35.03,-30.26 -25.69,-4.26 50.25,-13.81 65.16,-0.24 z"
   id="path138"
   style="fill:url(#id23)" />
  <path
   class="fil31"
   d="m 8045.79,8462.44 c 3.06,-19.93 25.09,-28.88 33.84,-29.2 8.76,-0.31 17.44,30.34 8.23,37.44 -9.21,7.11 -16.5,22.15 -5.84,45.92 10.65,23.76 -39.3,-34.24 -36.23,-54.16 z"
   id="path140"
   style="fill:url(#id3)" />
  <ellipse
   class="fil32"
   cx="8069.5898"
   cy="8449.21"
   rx="29.74"
   ry="16.52"
   id="ellipse142" />
  <ellipse
   class="fil33"
   cx="8072.6499"
   cy="8441.9297"
   rx="16.110001"
   ry="8.9499998"
   id="ellipse144" />
 </g>
</svg>
